<svg xmlns="http://www.w3.org/2000/svg" viewBox="0 0 64 64">
  <defs>
    <linearGradient id="g" x1="0" y1="0" x2="1" y2="1">
      <stop offset="0%" stop-color="#0ea5e9"/>
      <stop offset="100%" stop-color="#22c55e"/>
    </linearGradient>
  </defs>
  <rect width="64" height="64" rx="12" fill="url(#g)"/>
  <g fill="#fff">
    <circle cx="22" cy="22" r="6"/>
    <path d="M45 18c-5 0-9 4-9 9s4 9 9 9c2 0 4-.6 5.6-1.7l6.9 6.9a2.5 2.5 0 0 0 3.6-3.6l-6.9-6.9A9 9 0 0 0 45 18zm0 4a5 5 0 1 1 0 10 5 5 0 0 1 0-10z"/>
    <path d="M12 44c0-6.6 8.9-12 20-12s20 5.4 20 12v2H12v-2z"/>
  </g>
</svg>
